<?xml version="1.0" encoding="UTF-8"?>
<svg viewBox="0 0 326 60" xmlns="http://www.w3.org/2000/svg">
    <path d="m243 51.992c-13.235 0-24.002-10.541-24.002-23.497 0-12.957 10.767-23.498 24.002-23.498 13.234 0 24.002 10.541 24.002 23.498 0 12.956-10.768 23.497-24.002 23.497zm0-39.119c-8.8 0-15.957 7.007-15.957 15.622 0 8.614 7.157 15.621 15.957 15.621 8.799 0 15.957-7.007 15.957-15.621 0-8.615-7.158-15.622-15.957-15.622z" fill="#98fef0" fill-rule="evenodd"/>
    <path d="m89.812 5.146l35.476 40.031-52.422 10.439 16.946-50.47zm20.325 34.928l-17.13-19.327-8.183 24.368 25.313-5.041z" fill="#97feef" fill-rule="evenodd"/>
    <path d="m290.03 44.981l30.891-31.015 5.061 5.042-30.891 31.014-5.061-5.041z" fill="#99fef0" fill-rule="evenodd"/>
    <path d="m198 28.419l-19.401 9.027 9.294 19.027-7.567 3.521-9.294-19.027-19.401 9.027-3.624-7.422 19.401-9.026-9.294-19.028 7.567-3.52 9.294 19.027 19.401-9.027 3.624 7.421z" fill="#98fef0" fill-rule="evenodd"/>
    <path d="m42.592 54.007l-42.599-11.415 11.414-42.599 42.6 11.415-11.415 42.599zm0.612-36.363l-25.56-6.848-6.848 25.559 25.559 6.849 6.849-25.56z" fill="#97feef" fill-rule="evenodd"/>
</svg>
