<?xml version="1.0" standalone="no"?>
<svg version="1.0" xmlns="http://www.w3.org/2000/svg"
 width="260.000000pt" height="260.000000pt" viewBox="0 0 260.000000 260.000000"
 preserveAspectRatio="xMidYMid meet">
<metadata>
Created by potrace 1.11, written by Peter Selinger 2001-2013
</metadata>
<g transform="translate(0.000000,260.000000) scale(0.100000,-0.100000)"
fill="#000000" stroke="none">
<path d="M0 1300 l0 -1300 1300 0 1300 0 0 1300 0 1300 -1300 0 -1300 0 0
-1300z m1569 369 l705 -467 -35 -15 c-19 -8 -395 -175 -837 -371 -441 -197
-806 -356 -811 -354 -5 2 238 1662 248 1686 1 4 -46 36 730 -479z"/>
<path d="M986 1782 c-16 -80 -147 -984 -143 -988 2 -2 229 96 505 218 276 123
498 226 494 230 -4 4 -197 133 -429 287 -412 273 -422 279 -427 253z"/>
</g>
</svg>
